<?xml version="1.0" standalone="no"?><!DOCTYPE svg PUBLIC "-//W3C//DTD SVG 1.1//EN" "http://www.w3.org/Graphics/SVG/1.1/DTD/svg11.dtd"><svg width="40" height="40" viewBox="0 0 200 200" version="1.1" xmlns="http://www.w3.org/2000/svg" xmlns:xlink="http://www.w3.org/1999/xlink"><defs><style type="text/css"><![CDATA[
@font-face { font-family: ifont; src: url("http://at.alicdn.com/t/font_1442373896_4754455.eot?#iefix") format("embedded-opentype"), url("http://at.alicdn.com/t/font_1442373896_4754455.woff") format("woff"), url("http://at.alicdn.com/t/font_1442373896_4754455.ttf") format("truetype"), url("http://at.alicdn.com/t/font_1442373896_4754455.svg#ifont") format("svg"); }

]]></style></defs><g class="transform-group"><g transform="scale(0.1953125, 0.1953125)"><path d="M414.989474 693.493371C379.957894 755.472318 404.210526 803.977582 452.715789 833.619686 501.221053 860.567056 557.810526 857.872318 592.842106 795.893371 627.873685 733.914424 851.536842 189.577582 832.673685 176.103898 813.810526 168.019686 452.715789 634.20916 414.989474 693.493371L414.989474 693.493371 414.989474 693.493371ZM512 305.451266C533.557894 305.451266 555.115789 308.146003 576.673685 310.840739 598.231579 283.893371 625.178947 251.55653 649.431579 221.914424 606.315789 208.440739 560.505262 203.051266 512 203.051266 223.663158 203.051266 0 445.577582 0 755.472318 0 774.335477 0 793.198634 2.694737 812.061792 5.389474 839.00916 29.642105 860.567056 59.284211 857.872318 86.231579 855.177582 107.789474 830.92495 105.094737 801.282845 102.4 785.114424 102.4 768.946003 102.4 752.777582 102.4 502.167056 282.947368 305.451266 512 305.451266L512 305.451266 512 305.451266ZM881.178947 370.12495C867.705262 407.851266 851.536842 448.272318 838.063158 480.60916 889.263158 556.061792 921.6 650.377582 921.6 752.777582 921.6 768.946003 921.6 785.114424 918.905262 801.282845 916.210526 828.230213 937.768421 855.177582 964.715789 857.872318L970.105262 857.872318C997.052632 857.872318 1018.610526 839.00916 1021.305262 812.061792 1024 793.198634 1024 774.335477 1024 755.472318 1024 601.872318 970.105262 467.135477 881.178947 370.12495L881.178947 370.12495 881.178947 370.12495Z" fill="#cb6fd7"></path></g></g></svg>