<?xml version="1.0" standalone="no"?><!DOCTYPE svg PUBLIC "-//W3C//DTD SVG 1.1//EN" "http://www.w3.org/Graphics/SVG/1.1/DTD/svg11.dtd"><svg width="40" height="40" viewBox="0 0 200 200" version="1.1" xmlns="http://www.w3.org/2000/svg" xmlns:xlink="http://www.w3.org/1999/xlink"><defs><style type="text/css"><![CDATA[
@font-face { font-family: ifont; src: url("http://at.alicdn.com/t/font_1442373896_4754455.eot?#iefix") format("embedded-opentype"), url("http://at.alicdn.com/t/font_1442373896_4754455.woff") format("woff"), url("http://at.alicdn.com/t/font_1442373896_4754455.ttf") format("truetype"), url("http://at.alicdn.com/t/font_1442373896_4754455.svg#ifont") format("svg"); }

]]></style></defs><g class="transform-group"><g transform="scale(0.1953125, 0.1953125)"><path d="M769.024 834.56l25.6-122.88L717.824 696.32c46.08-51.2 71.68-112.64 71.68-184.32 0-30.72-5.12-56.32-15.36-87.04l10.24 5.12-51.2-184.32 71.68-20.48c81.92 71.68 128 174.08 128 286.72C932.864 645.12 871.424 762.88 769.024 834.56L769.024 834.56 769.024 834.56zM666.624 281.6c-40.96-25.6-92.16-40.96-143.36-40.96-133.12 0-245.76 92.16-271.36 220.16l-71.68 71.68-66.56-66.56c20.48-204.8 194.56-363.52 409.6-363.52 76.8 0 148.48 20.48 215.04 61.44l-92.16 25.6L666.624 281.6 666.624 281.6 666.624 281.6zM257.024 573.44c25.6 122.88 138.24 209.92 266.24 209.92 35.84 0 71.68-5.12 107.52-20.48l71.68 15.36-25.6 112.64c-51.2 20.48-102.4 30.72-153.6 30.72-199.68 0-368.64-143.36-404.48-332.8l61.44 61.44L257.024 573.44 257.024 573.44 257.024 573.44zM257.024 573.44" fill="#e8b110"></path></g></g></svg>